<?xml version="1.0" standalone="no"?>
<!DOCTYPE svg PUBLIC "-//W3C//DTD SVG 20010904//EN"
 "http://www.w3.org/TR/2001/REC-SVG-20010904/DTD/svg10.dtd">
<svg version="1.0" xmlns="http://www.w3.org/2000/svg"
 width="500.000000pt" height="500.000000pt" viewBox="0 0 500.000000 500.000000"
 preserveAspectRatio="xMidYMid meet">
<metadata>
Created by potrace 1.11, written by Peter Selinger 2001-2013
</metadata>
<g transform="translate(0.000000,500.000000) scale(0.100000,-0.100000)"
fill="#000000" stroke="none">
<path d="M0 2500 l0 -2500 2500 0 2500 0 0 2500 0 2500 -2500 0 -2500 0 0
-2500z m4444 2375 c160 -16 300 -140 352 -312 29 -99 13 -273 -30 -322 -7 -9
-17 -26 -20 -38 -12 -39 -112 -130 -178 -161 -94 -46 -192 -58 -297 -38 -47 9
-92 22 -100 30 -9 7 -20 15 -26 17 -44 17 -162 134 -174 172 -1 7 -12 30 -23
52 -16 31 -20 58 -19 130 1 115 10 176 27 196 8 9 12 23 9 31 -12 32 114 163
200 209 39 21 165 49 195 43 8 -1 46 -5 84 -9z m-969 -316 c4 7 11 8 18 3 7
-5 65 -9 130 -10 123 -2 160 -12 155 -40 -3 -14 -19 -18 -83 -23 -44 -4 -98
-14 -120 -23 -22 -8 -55 -15 -73 -16 -18 0 -49 -7 -69 -15 -19 -8 -47 -15 -62
-15 -14 0 -47 -11 -73 -25 -26 -14 -56 -25 -66 -25 -11 0 -31 -9 -45 -20 -14
-11 -30 -20 -37 -20 -14 0 -123 -51 -130 -61 -3 -4 -17 -10 -32 -14 -15 -4
-34 -15 -44 -26 -9 -10 -21 -19 -25 -19 -16 0 -207 -133 -281 -197 -83 -71
-208 -207 -303 -332 -46 -61 -54 -59 -48 12 3 34 12 74 19 89 8 15 19 50 25
78 6 27 14 50 19 50 4 0 11 20 14 45 5 29 14 49 27 55 12 7 19 21 19 41 0 23
5 32 21 36 16 5 19 11 14 31 -5 21 2 34 42 74 26 26 53 48 60 48 7 0 13 6 13
14 0 8 10 18 22 22 12 3 31 15 42 25 11 11 25 19 31 19 6 0 18 9 28 20 9 11
25 20 35 20 10 0 25 9 35 20 9 11 28 20 42 20 14 0 25 4 25 9 0 11 55 31 85
31 13 0 25 7 29 15 3 8 13 15 23 15 10 0 33 9 51 20 21 13 50 20 81 20 33 0
56 6 74 20 20 16 42 20 113 21 49 1 109 4 134 8 25 4 48 3 51 -2 4 -5 10 -4
14 2z m-1962 -472 c34 -1 51 -7 58 -19 6 -12 22 -18 43 -18 25 0 35 -5 39 -20
4 -15 14 -20 41 -20 29 0 36 -4 36 -20 0 -14 7 -20 24 -20 15 0 26 -7 29 -20
3 -11 12 -20 20 -20 8 0 17 -9 20 -20 3 -13 14 -20 29 -20 30 0 48 -17 48 -47
0 -18 6 -23 25 -23 28 0 43 -23 27 -43 -5 -6 -12 -24 -16 -39 -3 -16 -13 -28
-21 -28 -9 0 -15 -10 -15 -25 0 -14 -9 -34 -19 -44 -10 -10 -22 -30 -26 -43
-16 -51 -45 -96 -66 -101 -16 -4 -30 4 -57 34 -20 22 -67 58 -106 80 -58 34
-86 43 -151 51 -130 16 -214 3 -314 -48 -47 -24 -91 -44 -98 -44 -7 0 -13 -4
-13 -10 0 -5 -12 -16 -27 -24 -16 -8 -58 -45 -94 -83 -108 -111 -112 -116
-160 -190 -12 -18 -25 -33 -30 -33 -5 0 -9 -6 -9 -14 0 -8 -6 -21 -13 -28 -11
-11 -37 -58 -77 -138 -4 -8 -19 -16 -34 -18 -34 -4 -47 25 -20 45 14 11 16 16
6 22 -10 6 -10 14 -1 37 7 16 15 55 20 88 4 32 12 62 17 65 6 4 14 30 18 59 4
29 12 59 19 66 7 7 16 31 20 54 4 23 13 49 21 56 8 8 14 19 14 25 0 18 61 131
71 131 5 0 9 11 9 23 0 13 9 32 20 42 11 10 20 27 20 37 0 11 11 23 25 28 14
5 25 16 25 25 0 19 31 55 47 55 7 0 15 11 19 25 3 14 9 25 14 25 4 0 23 15 42
34 19 19 43 36 54 38 10 2 19 10 19 18 0 9 12 16 30 18 17 2 35 10 41 17 17
22 108 34 214 29 52 -2 117 -5 143 -7z m2227 -7 c19 -5 55 -14 80 -21 25 -6
63 -19 85 -29 22 -10 50 -21 63 -25 12 -3 22 -10 22 -15 0 -5 10 -12 22 -16
78 -24 277 -232 303 -316 4 -12 16 -34 26 -47 11 -13 19 -31 19 -40 0 -10 5
-22 11 -28 8 -8 6 -11 -6 -10 -10 1 -20 -4 -22 -11 -4 -9 2 -11 20 -7 22 6 26
3 32 -27 4 -18 11 -38 16 -44 14 -18 50 -161 64 -259 15 -102 26 -115 93 -115
82 0 221 -62 285 -126 33 -33 87 -111 87 -125 0 -5 9 -27 20 -49 16 -32 20
-59 20 -147 0 -89 -4 -115 -20 -146 -11 -20 -20 -43 -20 -49 0 -26 -91 -133
-139 -165 -38 -26 -48 -38 -44 -53 9 -33 20 -32 29 3 7 26 9 17 12 -51 2 -53
-1 -89 -9 -98 -6 -7 -17 -33 -24 -56 -8 -28 -18 -43 -28 -42 -9 1 -13 -4 -10
-12 7 -18 -16 -46 -30 -37 -5 3 -7 2 -4 -4 11 -17 -57 -75 -79 -67 -13 4 -15
3 -6 -3 10 -8 5 -16 -20 -35 -35 -27 -57 -90 -59 -173 -2 -60 -14 -100 -28
-97 -7 1 -10 -2 -7 -7 9 -14 -4 -41 -20 -41 -7 0 -17 -6 -21 -14 -4 -7 -36
-23 -70 -36 -34 -12 -64 -28 -67 -35 -2 -7 -18 -20 -35 -28 -29 -15 -31 -14
-31 4 0 10 6 19 13 19 22 0 101 44 130 73 15 15 32 27 37 27 6 0 10 9 10 20 0
13 7 20 19 20 22 0 30 16 23 43 -6 25 -36 17 -40 -11 -2 -14 -10 -22 -23 -22
-12 0 -19 -7 -19 -19 0 -12 -9 -21 -25 -25 -15 -4 -25 -14 -25 -24 0 -15 -7
-17 -36 -14 -29 4 -36 1 -41 -17 -14 -53 -48 3 -39 63 4 22 14 60 23 84 15 39
18 42 54 42 22 0 39 5 39 10 0 6 -13 10 -30 10 -33 0 -35 3 -20 31 6 11 21 19
35 19 18 0 25 5 25 20 0 18 7 20 60 20 47 0 60 3 60 15 0 8 -5 15 -11 15 -6 0
-22 9 -36 20 -28 22 -59 25 -83 10 -12 -8 -13 -13 -2 -30 10 -17 10 -20 -3
-20 -8 0 -15 5 -15 11 0 5 -4 8 -9 5 -11 -7 -57 115 -80 214 l-17 76 33 -4
c25 -3 33 0 33 11 0 10 13 19 36 23 19 4 38 12 41 20 2 7 19 16 36 20 18 3 39
14 48 23 15 16 14 18 -17 27 -26 8 -34 8 -38 -3 -3 -7 -13 -13 -22 -13 -9 0
-27 -9 -41 -20 -14 -11 -32 -20 -39 -20 -8 0 -14 -7 -14 -15 0 -8 -6 -15 -12
-15 -7 0 -23 -3 -35 -6 -20 -5 -23 -1 -29 35 -6 37 -10 41 -34 41 -25 0 -28
-4 -32 -41 -3 -36 0 -43 25 -61 22 -16 27 -26 22 -42 -16 -51 -13 -70 15 -105
30 -38 35 -87 13 -126 -9 -16 -7 -33 8 -78 19 -57 19 -57 -1 -97 -11 -21 -20
-57 -20 -79 0 -21 -8 -81 -19 -133 -23 -114 -129 -333 -221 -457 -210 -283
-505 -487 -862 -595 -201 -60 -282 -71 -568 -71 l-255 0 -145 38 c-378 100
-626 236 -879 481 -143 140 -273 318 -316 434 -18 50 -19 17 0 -43 8 -27 13
-51 11 -52 -2 -2 -20 35 -41 82 -21 47 -44 85 -52 85 -7 0 -13 6 -13 13 0 22
-32 44 -74 52 -55 9 -163 69 -212 116 -45 44 -61 91 -75 219 -11 99 -11 100
-20 94 -11 -6 -189 171 -189 188 0 7 -9 21 -20 31 -11 9 -20 29 -21 44 l-1 28
-7 -25 c-7 -23 -8 -21 -14 15 -4 22 -6 49 -6 60 1 18 2 18 7 -2 5 -17 11 -20
22 -13 12 8 9 16 -20 44 -73 72 -96 108 -127 196 -30 85 -31 206 -3 265 11 22
19 47 20 56 0 20 26 43 39 35 5 -3 12 1 15 10 9 22 7 36 -3 30 -5 -3 -3 11 4
32 7 20 22 41 34 47 11 5 21 15 21 22 0 8 12 13 29 13 16 0 34 6 40 14 7 8 27
18 44 21 18 4 46 15 62 25 19 11 42 16 61 13 18 -3 42 0 54 7 16 8 25 9 29 2
4 -6 27 -9 54 -7 43 3 49 1 57 -21 7 -19 17 -24 42 -24 22 0 37 -7 46 -20 7
-11 21 -20 32 -20 26 0 108 -86 136 -142 46 -91 56 -126 62 -200 4 -69 7 -78
24 -78 11 0 22 -9 25 -20 4 -14 14 -20 33 -20 19 0 29 -6 33 -20 3 -11 14 -20
25 -20 11 0 22 -9 25 -20 4 -14 14 -20 35 -20 21 0 31 -6 35 -20 3 -11 12 -20
21 -20 9 0 16 -8 16 -19 0 -29 11 -51 25 -51 7 0 15 -18 19 -40 4 -26 11 -40
21 -40 13 0 15 -17 14 -105 l-1 -105 -37 28 c-20 15 -45 32 -56 38 -11 6 -26
23 -33 38 -7 15 -31 38 -52 51 -26 16 -40 34 -45 55 -8 36 -19 32 -45 -21 -12
-22 -43 -64 -70 -94 -28 -31 -50 -61 -50 -69 0 -7 -6 -19 -14 -25 -8 -7 -17
-28 -20 -49 -12 -64 -17 -76 -27 -61 -10 17 -19 8 -23 -23 -1 -13 -6 -29 -10
-36 -10 -17 -53 -15 -60 3 -6 18 -47 20 -64 3 -8 -8 -11 -4 -9 18 2 24 -2 30
-23 32 -29 5 -110 -37 -110 -55 0 -9 18 -13 60 -13 53 0 60 -2 60 -20 0 -18 7
-20 65 -20 l66 0 -8 -37 c-4 -21 -7 -86 -6 -145 2 -101 1 -108 -18 -108 -10 0
-19 -4 -19 -10 0 -5 7 -10 16 -10 9 0 29 -8 45 -17 24 -14 31 -15 38 -5 6 10
15 0 30 -32 11 -25 21 -49 21 -53 1 -5 21 -23 45 -41 25 -18 54 -50 64 -71 23
-44 75 -92 131 -121 21 -11 55 -31 76 -45 20 -14 49 -25 63 -25 14 0 38 -6 53
-14 49 -26 85 -29 96 -9 6 10 14 15 17 11 4 -4 17 2 28 13 21 19 21 21 5 49
-14 24 -14 30 -3 30 26 0 26 19 1 68 -18 35 -23 58 -19 86 4 31 2 38 -15 43
-20 5 -42 49 -42 84 0 10 -13 28 -30 41 -16 12 -30 28 -30 35 0 7 -13 25 -30
40 -16 14 -30 34 -30 44 0 11 -24 34 -58 58 -33 22 -83 62 -113 89 -44 40 -63
51 -104 57 -27 4 -58 11 -67 16 -27 15 -22 60 12 105 16 21 30 48 30 58 0 22
27 56 44 56 7 0 19 -12 28 -28 10 -16 39 -37 72 -52 36 -16 57 -32 60 -46 7
-26 36 -40 47 -22 6 10 15 6 34 -14 28 -31 44 -35 63 -16 17 17 31 -4 24 -38
-3 -17 0 -24 12 -24 9 0 16 7 16 15 0 21 15 19 75 -10 38 -17 77 -26 146 -31
62 -4 98 -11 105 -20 9 -12 23 -13 66 -6 30 5 65 5 77 0 13 -4 31 -4 42 2 14
8 19 7 19 -1 0 -7 8 -9 23 -5 12 4 48 9 79 11 32 2 66 8 75 13 10 5 33 9 52
11 19 1 39 5 45 9 6 4 20 8 31 9 22 1 77 11 85 13 3 2 9 2 14 1 5 -1 12 3 17
10 4 6 28 12 53 13 25 0 46 4 46 9 0 10 191 4 208 -7 7 -4 17 -4 22 -1 6 3 10
2 10 -4 0 -6 15 -8 35 -6 20 3 35 0 35 -5 0 -6 12 -10 28 -10 15 0 43 -5 63
-10 19 -5 71 -11 115 -13 44 -2 86 -7 93 -11 8 -5 16 -4 21 3 5 9 13 9 34 0
22 -10 29 -10 35 0 6 10 17 10 45 3 30 -9 38 -8 46 6 9 16 9 16 10 0 0 -11 8
-18 20 -18 11 0 20 7 20 15 0 12 14 15 68 15 84 0 224 46 286 94 14 12 22 12
37 3 16 -10 24 -6 58 27 27 27 45 37 57 32 12 -4 29 6 57 36 23 24 46 44 52
44 5 1 16 2 23 3 7 0 20 17 29 36 9 19 21 36 27 36 6 1 17 2 24 3 7 0 18 12
25 26 7 14 19 25 27 25 8 0 25 20 37 45 l21 45 -94 3 -95 3 -44 -46 c-24 -25
-48 -45 -52 -45 -5 0 -17 -15 -27 -32 -22 -39 -56 -78 -67 -78 -14 0 3 174 18
191 8 9 17 33 20 53 3 21 11 36 20 36 7 0 18 11 23 25 5 14 17 25 25 25 9 0
18 7 21 15 4 8 12 15 20 15 7 0 18 9 24 20 6 11 21 20 34 20 15 0 26 7 29 20
3 12 14 20 26 20 11 0 25 9 31 20 6 12 21 20 36 20 14 0 27 7 31 18 4 9 11 20
16 23 5 4 5 15 -2 27 -15 28 -14 62 2 63 10 0 10 2 0 6 -18 7 -16 95 3 157 29
89 37 104 97 177 20 26 37 56 37 67 0 18 -26 57 -67 100 -7 7 -13 17 -13 21 0
8 -9 19 -85 102 -44 48 -172 139 -196 139 -8 0 -32 9 -54 20 -54 28 -129 27
-172 -2 -18 -13 -33 -26 -33 -29 0 -3 -11 -18 -25 -33 -14 -15 -25 -35 -25
-45 0 -10 -6 -24 -14 -30 -8 -7 -18 -27 -22 -44 -3 -17 -11 -40 -17 -52 -5
-11 -13 -27 -17 -35 -3 -8 -21 -22 -38 -30 -17 -8 -32 -21 -32 -27 0 -26 -68
-85 -100 -89 -39 -5 -50 -11 -50 -30 0 -9 -11 -14 -30 -14 -20 0 -30 -5 -30
-15 0 -16 -42 -30 -65 -21 -12 4 -14 20 -10 81 4 61 2 75 -10 75 -20 0 -35 32
-35 74 0 25 -4 36 -15 36 -8 0 -18 12 -21 28 -4 15 -13 36 -19 47 -7 11 -15
39 -19 63 -3 23 -15 51 -25 61 -16 16 -18 29 -13 90 4 67 3 71 -16 71 -26 0
-28 6 -24 84 3 54 7 65 24 69 14 4 19 13 18 34 -5 65 0 85 20 90 11 3 20 12
20 19 0 8 11 19 25 24 14 5 25 16 25 25 0 11 6 14 24 9 31 -7 66 3 66 21 0 8
17 16 40 20 22 4 40 12 40 20 0 13 75 30 91 19 17 -10 59 5 59 21 0 13 29 15
195 15 162 0 195 -2 195 -14 0 -20 54 -30 80 -16 29 16 13 31 -34 33 -22 1
-34 6 -32 14 3 6 -5 14 -17 17 -37 10 -381 6 -397 -4 -8 -5 -10 -10 -5 -11 21
-3 -52 -17 -93 -18 -35 -1 -45 -5 -49 -21 -3 -11 -10 -17 -15 -14 -16 10 -58
-6 -58 -21 0 -10 -10 -15 -29 -15 -17 0 -33 -4 -36 -10 -9 -15 -25 -12 -31 5
-7 17 101 122 120 117 6 -2 31 5 56 16 51 22 113 40 180 52 65 11 269 11 310
0z m-2336 -721 c14 -13 26 -29 26 -35 0 -7 9 -14 21 -17 11 -3 23 -15 26 -26
3 -12 9 -21 13 -21 10 0 25 -58 21 -78 -1 -8 8 -16 19 -19 19 -5 21 -11 16
-42 -4 -27 -1 -40 14 -56 14 -15 21 -41 25 -90 4 -37 12 -80 19 -94 7 -14 11
-42 9 -62 l-5 -37 -27 16 c-27 15 -46 55 -77 157 -25 81 -52 153 -75 195 -13
23 -30 53 -37 66 -44 80 -117 113 -223 101 -54 -7 -65 6 -21 25 15 7 34 17 42
24 18 14 54 19 132 18 46 -1 62 -6 82 -25z m-1214 -373 c0 -2 -7 -7 -16 -10
-8 -3 -12 -2 -9 4 6 10 25 14 25 6z m110 -6 c18 -12 2 -12 -25 0 -13 6 -15 9
-5 9 8 0 22 -4 30 -9z m4580 -5 c14 -8 21 -14 15 -14 -5 0 -21 6 -35 14 -14 8
-20 14 -15 14 6 0 21 -6 35 -14z m-1370 -25 c31 -32 33 -38 30 -81 -1 -16 5
-29 14 -32 28 -11 20 -98 -16 -174 -30 -65 -132 -183 -157 -183 -6 0 -26 -15
-44 -34 -19 -18 -43 -37 -55 -40 -11 -4 -23 -13 -26 -21 -3 -8 -21 -17 -40
-20 -19 -4 -37 -13 -40 -21 -4 -9 -22 -14 -55 -14 -40 0 -50 -3 -54 -20 -4
-17 -14 -20 -55 -20 -35 0 -56 -6 -72 -20 -22 -19 -57 -26 -110 -21 -14 1 -30
-5 -37 -15 -12 -16 -70 -27 -143 -25 -106 1 -166 -1 -175 -8 -14 -12 -436 -22
-460 -11 -19 8 -19 9 2 9 32 1 50 38 29 60 -14 13 -43 16 -170 17 -125 1 -158
5 -177 18 -13 9 -38 16 -57 16 -20 0 -35 6 -38 15 -4 8 -24 18 -45 21 -21 4
-39 10 -39 14 0 4 -18 20 -40 35 -62 43 -86 102 -89 218 -2 81 0 99 16 115 10
10 19 25 21 33 7 31 22 30 55 -3 19 -19 42 -38 50 -41 9 -3 21 -15 26 -26 9
-17 8 -22 -9 -31 -11 -6 -20 -7 -20 -3 0 4 -5 1 -10 -7 -12 -18 -12 -197 0
-225 8 -19 9 -19 9 3 1 13 5 21 11 17 5 -3 7 -11 4 -19 -3 -8 5 -12 26 -12 18
0 30 5 30 13 0 7 -9 13 -19 13 -24 0 -36 18 -32 48 1 12 -1 22 -6 22 -13 0 -3
74 11 82 8 5 7 11 -2 20 -17 17 -15 31 7 45 14 9 25 8 47 -4 16 -8 49 -21 73
-27 38 -10 45 -16 48 -41 3 -16 5 -31 6 -32 7 -6 199 -5 240 2 37 6 51 4 65
-8 14 -13 46 -16 172 -18 104 0 156 3 158 10 5 16 29 13 36 -4 8 -21 23 -19
29 5 5 20 15 22 132 24 19 1 31 7 33 17 2 14 18 18 78 21 59 3 78 7 85 21 7
12 23 17 53 17 29 0 51 7 66 20 15 13 37 20 62 20 31 0 41 4 45 19 4 16 15 21
52 23 30 2 45 7 43 16 -3 17 15 15 22 -3 10 -28 35 -16 41 19 7 35 24 46 75
46 14 0 33 9 43 20 9 11 24 20 32 20 8 0 15 7 15 15 0 8 6 16 13 16 6 1 17 2
22 4 6 1 18 3 28 3 9 1 17 9 17 17 0 8 5 15 10 15 6 0 13 -7 16 -15 4 -8 15
-15 25 -15 10 0 19 7 19 15 0 8 -9 15 -20 15 -26 0 -25 18 3 45 29 30 33 30
67 -5z m-3390 7 c0 -2 -15 -16 -32 -33 l-33 -29 29 33 c28 30 36 37 36 29z
m170 -14 c45 -5 50 -8 30 -14 -14 -4 -51 -7 -82 -8 -45 -1 -63 -6 -87 -27 -17
-14 -29 -29 -26 -34 3 -4 -2 -10 -10 -14 -11 -4 -15 -21 -16 -58 0 -42 -2 -48
-9 -30 -14 33 4 109 31 139 25 26 73 52 99 53 8 0 40 -3 70 -7z m4665 -23 l20
-25 -22 19 c-13 11 -23 24 -23 29 0 6 1 8 3 6 1 -2 11 -15 22 -29z m-1815
-111 c0 -5 -9 -9 -19 -9 -11 0 -26 -6 -34 -14 -15 -15 -87 -33 -87 -22 0 4 15
14 33 22 17 8 43 21 56 29 24 13 51 10 51 -6z m-2122 -290 c-8 -6 2 -9 29 -9
23 0 45 -5 48 -11 4 -6 14 -8 22 -5 21 8 131 -66 163 -109 11 -15 7 -14 -15 5
-17 14 -34 29 -40 35 -15 15 -90 65 -98 65 -4 0 -2 -9 5 -20 7 -11 17 -20 21
-20 19 0 94 -62 117 -98 14 -20 30 -41 37 -47 6 -5 23 -33 38 -61 22 -45 26
-62 23 -130 -2 -46 -8 -79 -14 -81 -8 -3 -10 17 -6 67 4 60 2 70 -12 70 -9 0
-16 8 -16 20 0 24 -21 70 -32 70 -4 0 -8 7 -8 15 0 8 -9 20 -20 27 -11 7 -20
18 -20 25 0 7 -7 13 -15 13 -8 0 -19 9 -25 20 -6 11 -20 20 -30 20 -11 0 -20
7 -20 15 0 9 -12 18 -30 22 -17 3 -35 14 -41 24 -5 11 -19 19 -29 19 -11 0
-20 7 -20 15 0 9 -12 18 -30 22 -26 5 -30 10 -30 40 l0 34 31 -22 c23 -16 28
-24 17 -30z m58 20 c3 -6 -5 -3 -20 6 -14 10 -26 19 -26 22 0 7 39 -17 46 -28z
m2996 -14 c-8 -18 -19 -25 -39 -25 -22 0 -25 2 -13 10 13 8 12 10 -4 10 -23 0
-12 15 26 35 31 16 45 2 30 -30z m-2957 -5 c3 -6 -1 -7 -9 -4 -18 7 -21 14 -7
14 6 0 13 -4 16 -10z m2825 6 c0 -2 -8 -10 -17 -17 -16 -13 -17 -12 -4 4 13
16 21 21 21 13z m62 -40 c13 -18 9 -26 -12 -26 -10 0 -24 -9 -30 -20 -7 -13
-21 -20 -40 -20 -19 0 -33 -7 -40 -20 -6 -11 -17 -20 -25 -20 -8 0 -15 -7 -15
-16 0 -9 -9 -18 -20 -21 -11 -3 -20 -11 -20 -18 0 -17 -31 -28 -43 -16 -14 14
-3 46 17 44 11 0 15 4 12 12 -6 17 19 39 34 30 5 -3 10 0 10 9 0 8 15 24 33
35 19 11 46 32 61 46 28 26 62 27 78 1z m-167 -36 c-3 -5 -12 -10 -18 -10 -7
0 -6 4 3 10 19 12 23 12 15 0z m-30 -28 c-53 -42 -60 -46 -33 -19 16 15 31 27
35 27 4 0 3 -3 -2 -8z m-427 -85 c2 -15 12 -32 23 -37 10 -6 19 -19 19 -29 0
-10 9 -21 20 -24 15 -4 20 -14 20 -37 0 -23 5 -33 20 -37 16 -4 20 -14 20 -49
0 -32 6 -49 20 -61 15 -13 20 -30 20 -64 0 -38 4 -48 20 -52 54 -14 -15 -82
-118 -117 -43 -14 -102 -24 -164 -28 -54 -2 -98 -9 -98 -14 0 -5 -10 -3 -22 3
-13 7 -24 12 -25 11 -2 -1 -13 -2 -25 -2 -34 0 -11 14 25 15 119 4 117 4 127
30 5 14 16 25 25 25 8 0 15 9 15 19 0 29 11 51 25 51 9 0 13 18 13 61 0 47 -4
64 -19 77 -10 9 -19 23 -19 30 0 18 -55 72 -74 72 -8 0 -19 7 -23 15 -10 16
-25 19 -104 17 -48 -2 -58 -5 -62 -22 -3 -11 -12 -20 -21 -20 -27 0 -66 -45
-66 -76 0 -17 -8 -37 -20 -47 -11 -9 -20 -28 -20 -41 0 -15 7 -26 20 -29 15
-4 20 -14 20 -37 0 -32 33 -79 56 -80 7 0 14 -9 17 -20 3 -14 14 -20 32 -20
14 0 24 -4 20 -10 -14 -22 -248 10 -403 56 -92 27 -215 34 -253 14 -10 -6 -19
-8 -19 -4 0 3 -6 2 -12 -3 -7 -6 -31 -16 -53 -22 -22 -7 -49 -16 -60 -21 -54
-22 -117 -33 -258 -45 -32 -3 -62 -7 -66 -9 -4 -3 -13 -1 -20 3 -7 5 -33 3
-56 -5 -25 -7 -45 -9 -47 -4 -2 5 -37 10 -78 10 -134 2 -285 44 -278 79 2 9
10 16 18 16 8 0 15 5 15 10 0 6 -7 10 -15 10 -25 0 -24 41 0 48 18 5 20 10 14
41 -5 32 -4 36 15 36 23 0 29 28 11 46 -8 8 -6 15 5 24 8 7 15 18 15 25 0 7 7
18 15 25 8 7 15 26 15 42 l0 29 93 -7 c50 -4 96 -10 102 -15 5 -6 -7 -26 -33
-52 l-42 -43 0 -92 c0 -76 3 -92 15 -92 9 0 20 -11 25 -25 5 -14 16 -25 24
-25 7 0 16 -9 19 -20 4 -15 14 -20 42 -20 32 0 37 -3 32 -20 -6 -25 0 -25 38
0 17 11 47 20 68 20 30 0 40 4 44 19 3 11 15 21 26 23 34 5 64 73 62 138 -2
30 -3 70 -4 88 -1 25 -6 35 -21 39 -27 7 -27 43 0 43 11 0 58 -10 103 -22 120
-32 262 -31 442 4 158 31 389 68 423 68 13 0 22 6 22 15 0 11 12 15 45 15 32
0 45 4 45 14 0 17 22 26 67 26 26 0 36 5 40 20 4 15 14 20 38 20 25 0 34 5 38
21 8 31 41 21 45 -14z m352 20 c0 -2 -10 -12 -22 -23 l-23 -19 19 23 c18 21
26 27 26 19z m-40 -51 c0 -2 -8 -10 -17 -17 -16 -13 -17 -12 -4 4 13 16 21 21
21 13z m70 -19 c0 -7 -9 -18 -20 -25 -11 -7 -20 -23 -20 -35 0 -14 -6 -24 -15
-24 -19 0 -19 21 -1 36 8 7 17 23 20 36 6 25 36 35 36 12z m1077 -119 c-3 -8
-6 -5 -6 6 -1 11 2 17 5 13 3 -3 4 -12 1 -19z m-2907 -13 c0 -7 10 -15 23 -17
19 -3 22 -10 25 -50 3 -39 -1 -49 -20 -62 -33 -23 -87 -20 -115 6 -28 26 -33
98 -7 98 9 0 18 9 21 19 3 12 16 21 32 23 32 4 41 1 41 -17z m1250 -5 c0 -11
9 -29 20 -40 23 -23 25 -36 8 -47 -7 -4 -18 -17 -24 -28 -9 -16 -22 -20 -59
-20 -45 0 -50 3 -67 34 -17 31 -18 35 -4 43 9 5 16 18 16 29 0 12 8 23 20 26
11 3 20 9 20 14 0 5 16 9 35 9 28 0 35 -4 35 -20z m1647 -67 c-3 -10 -5 -2 -5
17 0 19 2 27 5 18 2 -10 2 -26 0 -35z m-4595 -68 c3 -13 1 -22 -3 -19 -9 5
-13 44 -5 44 2 0 6 -11 8 -25z m68 -110 c19 -19 32 -35 29 -35 -3 0 -20 16
-39 35 -19 19 -32 35 -29 35 3 0 20 -16 39 -35z m4450 12 c0 -1 -24 -25 -52
-52 l-53 -50 50 53 c46 48 55 57 55 49z m-4345 -107 c10 -11 16 -20 13 -20 -3
0 -13 9 -23 20 -10 11 -16 20 -13 20 3 0 13 -9 23 -20z m52 -162 c-2 -18 -4
-4 -4 32 0 36 2 50 4 33 2 -18 2 -48 0 -65z m4110 -60 c-3 -8 -6 -5 -6 6 -1
11 2 17 5 13 3 -3 4 -12 1 -19z m-4077 -42 c0 -6 -7 -1 -15 10 -8 10 -14 26
-14 34 0 16 28 -28 29 -44z m477 24 c6 0 13 6 16 13 6 15 78 -52 116 -108 41
-61 55 -103 55 -169 1 -56 -1 -61 -19 -58 -32 6 -144 90 -159 120 -7 15 -17
43 -21 62 -4 19 -16 45 -27 56 -21 24 -25 46 -14 88 6 26 8 27 25 12 10 -9 22
-16 28 -16z m-422 -101 c27 -31 26 -31 -13 6 -23 21 -42 43 -42 48 0 9 5 4 55
-54z m4005 58 c0 -2 -10 -12 -22 -23 l-23 -19 19 23 c18 21 26 27 26 19z m-60
-60 c0 -2 -10 -12 -22 -23 l-23 -19 19 23 c18 21 26 27 26 19z m-3877 -47 c9
-11 13 -20 9 -20 -4 0 -15 9 -25 20 -9 11 -13 20 -9 20 4 0 15 -9 25 -20z
m3827 6 c0 -2 -8 -10 -17 -17 -16 -13 -17 -12 -4 4 13 16 21 21 21 13z m-3779
-43 c13 -16 12 -17 -3 -4 -17 13 -22 21 -14 21 2 0 10 -8 17 -17z m119 -48
c14 -8 21 -14 15 -14 -5 0 -21 6 -35 14 -14 8 -20 14 -15 14 6 0 21 -6 35 -14z
m3496 0 c-11 -8 -25 -15 -30 -15 -6 1 0 7 14 15 32 19 40 18 16 0z m-1401
-1115 c-3 -5 -22 -14 -43 -20 -42 -11 -129 -14 -118 -3 5 5 95 23 159 32 5 1
6 -3 2 -9z"/>
<path d="M4448 4853 c6 -2 18 -2 25 0 6 3 1 5 -13 5 -14 0 -19 -2 -12 -5z"/>
<path d="M4302 4824 c-6 -3 -10 -9 -7 -14 2 -4 -16 -10 -42 -13 -26 -3 -52
-12 -57 -20 -6 -8 -22 -18 -36 -22 -43 -13 -78 -44 -85 -75 -4 -17 -10 -30
-14 -30 -4 0 -19 -18 -34 -41 -32 -48 -37 -102 -9 -97 12 2 18 14 20 41 3 29
7 37 23 37 13 0 19 7 19 24 0 15 7 26 20 29 11 3 20 12 20 21 0 9 7 16 15 16
8 0 15 5 15 11 0 5 14 15 30 20 17 6 30 17 30 24 0 8 26 14 79 19 101 8 221
-2 221 -19 0 -7 11 -16 25 -19 14 -4 25 -13 25 -20 0 -8 15 -17 34 -20 27 -5
35 -12 40 -37 4 -20 13 -33 27 -36 17 -5 20 -11 15 -38 -8 -40 2 -68 20 -61
10 4 14 -5 14 -33 0 -22 3 -47 6 -56 5 -11 0 -18 -15 -22 -26 -7 -27 -19 -1
-26 12 -3 20 -14 20 -26 0 -12 4 -21 9 -21 12 0 23 123 15 166 -3 19 -10 34
-15 34 -5 0 -9 6 -9 14 0 7 -6 19 -14 26 -12 9 -13 17 -4 36 9 20 8 28 -8 43
-10 10 -30 33 -44 50 -14 17 -33 31 -42 31 -10 0 -18 7 -18 15 0 8 -7 15 -15
15 -8 0 -23 10 -34 21 -12 13 -37 23 -65 26 -26 3 -44 10 -43 17 2 11 -107 20
-131 10z"/>
<path d="M3971 4473 c-1 -41 10 -55 24 -32 4 6 13 8 21 5 8 -3 14 1 14 9 0 8
-6 15 -14 15 -7 0 -21 10 -29 23 -16 21 -16 21 -16 -20z"/>
<path d="M4005 4390 c-9 -14 5 -110 15 -110 10 0 24 96 15 110 -3 5 -10 10
-15 10 -5 0 -12 -5 -15 -10z"/>
<path d="M4677 4313 c-4 -4 -4 -22 -1 -40 5 -29 4 -33 -15 -33 -13 0 -21 -6
-21 -16 0 -9 -9 -18 -20 -21 -11 -3 -20 -13 -20 -23 0 -12 -9 -20 -22 -22 -13
-2 -24 -11 -26 -20 -5 -26 38 -24 45 1 3 11 13 21 24 24 10 3 19 12 19 21 0 9
7 16 15 16 9 0 19 8 22 18 4 9 12 21 20 25 17 11 17 77 0 77 -8 0 -17 -3 -20
-7z"/>
<path d="M4040 4258 c0 -26 16 -55 25 -46 3 3 7 18 8 34 1 20 -3 29 -15 32
-13 2 -18 -3 -18 -20z"/>
<path d="M4077 4194 c-11 -11 3 -24 24 -24 12 0 19 5 17 13 -5 14 -31 21 -41
11z"/>
<path d="M4146 4152 c-3 -5 11 -23 31 -41 27 -24 44 -31 67 -29 49 5 40 32
-11 36 -35 3 -43 7 -43 23 0 19 -33 28 -44 11z"/>
<path d="M4474 4109 c-13 -22 13 -32 51 -19 27 9 34 15 24 21 -20 12 -67 11
-75 -2z"/>
<path d="M4282 4071 c-10 -6 -8 -10 10 -14 32 -9 149 -7 172 2 18 7 18 8 -5
14 -35 10 -162 8 -177 -2z"/>
<path d="M3473 4493 c9 -2 25 -2 35 0 9 3 1 5 -18 5 -19 0 -27 -2 -17 -5z"/>
<path d="M3220 4419 c0 -5 5 -7 10 -4 6 3 10 8 10 11 0 2 -4 4 -10 4 -5 0 -10
-5 -10 -11z"/>
<path d="M2480 4160 c-11 -7 -10 -11 3 -25 18 -17 37 -13 37 10 0 17 -23 26
-40 15z"/>
<path d="M2681 4114 c0 -11 3 -14 6 -6 3 7 2 16 -1 19 -3 4 -6 -2 -5 -13z"/>
<path d="M2365 3800 c-3 -5 1 -10 9 -10 9 0 16 5 16 10 0 6 -4 10 -9 10 -6 0
-13 -4 -16 -10z"/>
<path d="M1200 3870 c0 -6 30 -10 70 -10 40 0 70 4 70 10 0 6 -30 10 -70 10
-40 0 -70 -4 -70 -10z"/>
<path d="M1482 3842 c-18 -2 -30 -8 -27 -13 8 -12 85 -12 85 0 0 12 -20 17
-58 13z"/>
<path d="M1048 3828 c8 -8 20 -8 44 -1 l33 11 -44 1 c-34 1 -42 -2 -33 -11z"/>
<path d="M1593 3803 c-20 -7 -15 -23 7 -23 11 0 20 4 20 9 0 13 -12 19 -27 14z"/>
<path d="M970 3790 c0 -5 9 -10 20 -10 11 0 20 5 20 10 0 6 -9 10 -20 10 -11
0 -20 -4 -20 -10z"/>
<path d="M1660 3750 c0 -5 6 -10 14 -10 8 0 18 5 21 10 3 6 -3 10 -14 10 -12
0 -21 -4 -21 -10z"/>
<path d="M1737 3723 c-13 -12 -7 -23 13 -23 11 0 20 7 20 15 0 15 -21 21 -33
8z"/>
<path d="M1790 3670 c0 -5 5 -10 10 -10 6 0 10 5 10 10 0 6 -4 10 -10 10 -5 0
-10 -4 -10 -10z"/>
<path d="M3558 4073 c12 -2 32 -2 45 0 12 2 2 4 -23 4 -25 0 -35 -2 -22 -4z"/>
<path d="M3228 3993 c7 -3 16 -2 19 1 4 3 -2 6 -13 5 -11 0 -14 -3 -6 -6z"/>
<path d="M3885 3930 c-11 -18 17 -42 43 -37 18 3 26 0 29 -14 3 -11 12 -19 19
-19 8 0 22 -9 31 -20 10 -11 23 -20 30 -20 7 0 13 -6 13 -14 0 -8 9 -17 19
-21 10 -3 21 -15 24 -25 3 -11 12 -20 21 -20 9 0 16 -7 16 -15 0 -8 7 -15 15
-15 8 0 15 -9 15 -20 0 -10 9 -24 19 -30 11 -5 23 -19 26 -30 7 -22 30 -27 37
-7 7 18 -2 37 -18 37 -8 0 -14 6 -14 13 0 7 -11 23 -25 35 -14 12 -25 28 -25
37 0 8 -9 19 -20 25 -11 6 -20 17 -20 25 0 7 -9 17 -20 20 -11 3 -20 13 -20
21 0 8 -9 14 -20 14 -10 0 -24 9 -30 19 -5 11 -20 23 -32 27 -13 4 -27 13 -33
20 -14 17 -71 28 -80 14z"/>
<path d="M3430 3750 c0 -12 8 -12 35 0 18 8 17 9 -7 9 -16 1 -28 -3 -28 -9z"/>
<path d="M3670 3756 c0 -9 40 -13 46 -5 3 5 -6 9 -20 9 -14 0 -26 -2 -26 -4z"/>
<path d="M3315 3710 c3 -5 10 -10 16 -10 5 0 9 5 9 10 0 6 -7 10 -16 10 -8 0
-12 -4 -9 -10z"/>
<path d="M3815 3710 c4 -6 11 -8 16 -5 14 9 11 15 -7 15 -8 0 -12 -5 -9 -10z"/>
<path d="M3120 3594 c0 -8 5 -12 10 -9 6 3 10 10 10 16 0 5 -4 9 -10 9 -5 0
-10 -7 -10 -16z"/>
<path d="M4253 3593 c-20 -7 -16 -51 6 -58 20 -6 36 -49 26 -66 -4 -5 -3 -23
0 -40 7 -29 8 -30 23 -15 13 13 14 22 6 44 -7 18 -7 33 -1 43 7 11 2 26 -17
54 -32 47 -28 43 -43 38z"/>
<path d="M3620 3480 c0 -19 29 -22 52 -6 22 16 22 16 -15 16 -20 0 -37 -5 -37
-10z"/>
<path d="M3750 3485 c0 -8 72 -24 86 -18 30 11 12 23 -36 23 -27 0 -50 -2 -50
-5z"/>
<path d="M3580 3440 c0 -5 7 -10 16 -10 8 0 12 5 9 10 -3 6 -10 10 -16 10 -5
0 -9 -4 -9 -10z"/>
<path d="M3900 3440 c0 -5 5 -10 11 -10 5 0 7 5 4 10 -3 6 -8 10 -11 10 -2 0
-4 -4 -4 -10z"/>
<path d="M4130 3434 c0 -8 5 -12 10 -9 6 3 10 10 10 16 0 5 -4 9 -10 9 -5 0
-10 -7 -10 -16z"/>
<path d="M4325 3361 c-8 -37 2 -74 18 -68 14 5 14 74 -1 89 -7 7 -12 0 -17
-21z"/>
<path d="M3510 3366 c0 -9 5 -16 10 -16 6 0 10 4 10 9 0 6 -4 13 -10 16 -5 3
-10 -1 -10 -9z"/>
<path d="M3466 3332 c-2 -4 -1 -14 4 -22 7 -11 12 -12 21 -3 6 6 8 16 5 22 -8
13 -23 14 -30 3z"/>
<path d="M4087 3334 c-8 -8 1 -24 14 -24 5 0 9 7 9 15 0 15 -12 20 -23 9z"/>
<path d="M4210 3320 c0 -5 5 -10 10 -10 6 0 10 5 10 10 0 6 -4 10 -10 10 -5 0
-10 -4 -10 -10z"/>
<path d="M4127 3294 c-8 -8 1 -24 14 -24 5 0 9 7 9 15 0 15 -12 20 -23 9z"/>
<path d="M3430 3240 c0 -11 4 -20 9 -20 11 0 22 26 14 34 -12 12 -23 5 -23
-14z"/>
<path d="M4250 3246 c0 -9 5 -16 10 -16 6 0 10 4 10 9 0 6 -4 13 -10 16 -5 3
-10 -1 -10 -9z"/>
<path d="M4368 3225 c-1 -19 -2 -43 -2 -52 -1 -13 6 -18 23 -17 21 1 23 -2 18
-33 -6 -37 0 -63 14 -63 18 0 9 81 -11 107 -11 14 -20 41 -20 59 0 45 -20 44
-22 -1z"/>
<path d="M3434 3179 c-3 -6 -1 -16 5 -22 8 -8 11 -5 11 11 0 24 -5 28 -16 11z"/>
<path d="M4202 3171 c2 -7 7 -12 11 -12 12 1 9 15 -3 20 -7 2 -11 -2 -8 -8z"/>
<path d="M4290 3170 c0 -5 5 -10 10 -10 6 0 10 5 10 10 0 6 -4 10 -10 10 -5 0
-10 -4 -10 -10z"/>
<path d="M3390 3125 c0 -17 5 -25 13 -22 6 2 12 12 12 22 0 10 -6 20 -12 23
-8 2 -13 -6 -13 -23z"/>
<path d="M4282 3089 c2 -6 8 -10 13 -10 5 0 11 4 13 10 2 6 -4 11 -13 11 -9 0
-15 -5 -13 -11z"/>
<path d="M3203 2995 c0 -22 2 -30 4 -17 2 12 2 30 0 40 -3 9 -5 -1 -4 -23z"/>
<path d="M4320 3010 c0 -5 11 -10 25 -10 14 0 25 5 25 10 0 6 -11 10 -25 10
-14 0 -25 -4 -25 -10z"/>
<path d="M4400 2981 c0 -16 -6 -21 -25 -21 -13 0 -32 -8 -42 -18 -10 -11 -26
-22 -36 -25 -9 -4 -16 -12 -15 -18 2 -7 -8 -15 -22 -19 -28 -7 -40 -47 -18
-62 9 -6 6 -7 -9 -3 -18 5 -25 1 -35 -22 -7 -15 -17 -31 -23 -35 -11 -8 -15
-241 -4 -259 14 -24 21 14 21 118 -1 95 1 106 18 110 11 3 22 18 26 36 8 37
34 76 51 77 7 0 17 9 23 20 6 11 17 20 24 20 8 0 16 9 19 20 4 14 14 20 36 20
18 0 34 7 40 18 8 14 24 17 101 17 77 0 93 -3 101 -17 6 -11 22 -18 39 -18 19
0 33 -7 40 -20 6 -11 16 -20 23 -20 14 0 57 -43 57 -58 0 -5 9 -12 20 -15 15
-4 20 -14 20 -37 0 -23 5 -33 20 -37 19 -5 20 -14 20 -129 0 -116 -1 -124 -19
-124 -28 0 -33 -13 -15 -39 l16 -22 25 38 c23 33 27 51 30 143 3 66 1 114 -7
130 -16 37 -35 67 -52 87 -9 10 -23 35 -33 56 -10 22 -25 41 -34 45 -9 3 -24
13 -34 24 -10 10 -31 18 -47 18 -17 0 -33 7 -39 18 -8 14 -28 18 -135 21 -123
3 -126 2 -126 -18z"/>
<path d="M4840 2899 c0 -5 5 -7 10 -4 6 3 10 8 10 11 0 2 -4 4 -10 4 -5 0 -10
-5 -10 -11z"/>
<path d="M387 2865 c-8 -7 -28 -17 -43 -21 -31 -7 -35 -11 -101 -73 -25 -24
-40 -46 -37 -55 3 -8 -2 -17 -13 -20 -10 -3 -27 -20 -38 -38 -26 -45 -27 -274
-1 -293 9 -7 16 -19 16 -27 0 -8 6 -23 14 -33 13 -18 14 -17 21 13 8 37 0 53
-20 45 -13 -4 -15 16 -15 136 0 134 1 141 20 141 11 0 20 7 20 15 0 24 124
145 148 145 28 0 53 11 47 20 -8 13 42 20 122 19 72 -2 98 -9 91 -25 -1 -5 14
-10 35 -12 20 -2 37 -7 37 -13 0 -11 60 -69 71 -69 5 0 9 -7 9 -15 0 -7 6 -18
13 -22 8 -4 16 -16 20 -25 3 -10 16 -18 27 -18 27 0 27 36 0 50 -11 6 -20 21
-20 34 0 14 -14 35 -37 54 -21 18 -45 38 -53 46 -8 8 -29 18 -45 22 -16 4 -36
13 -43 21 -20 19 -225 18 -245 -2z"/>
<path d="M854 2623 c-4 -14 -14 -23 -25 -23 -25 0 -24 -26 1 -33 19 -5 20 -13
19 -90 -1 -87 4 -112 23 -101 6 4 8 52 6 126 -3 120 -12 165 -24 121z"/>
<path d="M4190 2474 c0 -15 22 -44 31 -39 18 12 10 45 -11 45 -11 0 -20 -3
-20 -6z"/>
<path d="M4231 2396 c-9 -11 -8 -15 5 -20 26 -10 34 -7 34 14 0 23 -22 27 -39
6z"/>
<path d="M4790 2380 c0 -22 20 -26 38 -8 19 19 14 28 -13 28 -18 0 -25 -5 -25
-20z"/>
<path d="M806 2361 c-3 -5 -1 -23 6 -41 l11 -33 14 27 c8 15 12 34 9 42 -6 16
-32 19 -40 5z"/>
<path d="M4270 2352 c0 -15 47 -49 83 -61 20 -7 37 -17 40 -24 2 -8 39 -13
111 -15 111 -4 156 1 156 18 0 6 -53 10 -135 10 -130 0 -135 1 -135 21 0 16
-6 20 -27 19 -46 -3 -53 -1 -53 20 0 13 -7 20 -20 20 -11 0 -20 -4 -20 -8z"/>
<path d="M4750 2341 c0 -18 -6 -21 -40 -21 -29 0 -40 -4 -40 -15 0 -19 65 -21
77 -2 4 6 16 17 26 22 26 14 26 29 0 33 -18 3 -23 -2 -23 -17z"/>
<path d="M210 2279 c0 -14 55 -69 70 -69 6 0 10 8 8 18 -2 9 -11 16 -21 16
-10 -1 -17 5 -17 16 0 10 -7 21 -16 24 -21 8 -24 8 -24 -5z"/>
<path d="M775 2271 c-3 -10 -17 -22 -30 -25 -25 -6 -34 -30 -15 -41 11 -7 51
12 62 29 11 16 10 56 -1 56 -5 0 -12 -9 -16 -19z"/>
<path d="M658 2273 c7 -3 16 -2 19 1 4 3 -2 6 -13 5 -11 0 -14 -3 -6 -6z"/>
<path d="M313 2203 c-34 -7 -28 -20 13 -28 40 -7 49 -3 41 20 -6 15 -13 16
-54 8z"/>
<path d="M650 2187 c0 -23 -1 -23 -117 -20 -134 2 -180 -4 -163 -21 7 -7 59
-11 144 -11 113 0 135 3 150 17 10 10 28 21 42 24 33 8 30 20 -7 28 -46 9 -49
8 -49 -17z"/>
<path d="M4714 2175 c-4 -8 -4 -47 -2 -85 3 -62 2 -70 -14 -70 -10 0 -18 -7
-18 -15 0 -9 -11 -20 -25 -25 -14 -5 -25 -16 -25 -24 0 -7 -9 -16 -20 -19 -12
-3 -20 -14 -20 -27 0 -19 -4 -20 -35 -14 -30 5 -36 3 -43 -17 -7 -18 -17 -23
-43 -23 -24 -1 -35 -6 -37 -19 -3 -16 2 -18 40 -15 33 2 42 7 40 19 -1 12 7
16 34 17 23 1 44 9 56 22 10 11 23 20 28 20 6 0 10 7 10 15 0 8 7 15 16 15 9
0 18 9 21 20 3 10 14 22 24 25 10 4 19 13 19 22 0 9 7 21 16 28 12 9 16 27 15
79 0 37 -3 72 -6 77 -9 14 -25 11 -31 -6z"/>
<path d="M682 2126 c-18 -5 -31 -15 -29 -20 6 -18 22 -16 52 9 32 26 28 28
-23 11z"/>
<path d="M278 2120 c6 -8 12 -28 13 -44 0 -17 4 -40 9 -51 7 -19 9 -18 19 8
14 37 14 67 -1 67 -6 0 -21 8 -32 17 -12 10 -15 11 -8 3z"/>
<path d="M733 2119 c-19 -19 13 -59 48 -59 22 0 29 -5 29 -20 0 -16 7 -20 35
-20 46 0 47 25 1 34 -22 4 -36 13 -39 26 -3 13 -14 20 -30 20 -15 0 -27 6 -29
16 -2 12 -6 12 -15 3z"/>
<path d="M4630 2120 c0 -5 9 -10 21 -10 11 0 17 5 14 10 -3 6 -13 10 -21 10
-8 0 -14 -4 -14 -10z"/>
<path d="M4540 2080 c0 -5 11 -10 25 -10 14 0 25 5 25 10 0 6 -11 10 -25 10
-14 0 -25 -4 -25 -10z"/>
<path d="M577 2054 c-16 -17 -4 -24 38 -24 25 0 45 5 45 10 0 6 -11 10 -24 10
-13 0 -31 2 -38 5 -8 3 -17 2 -21 -1z"/>
<path d="M4394 2049 c-8 -14 11 -33 25 -25 6 4 11 14 11 22 0 16 -26 19 -36 3z"/>
<path d="M320 2007 c0 -26 22 -77 31 -71 5 3 9 -1 9 -9 0 -8 14 -26 32 -41 26
-21 42 -26 86 -26 46 0 53 3 50 18 -2 13 -15 18 -56 20 -39 2 -55 8 -59 20 -3
9 -14 26 -23 37 -10 11 -20 29 -22 40 -4 23 -48 35 -48 12z"/>
<path d="M720 2000 c0 -5 14 -10 30 -10 17 0 30 5 30 10 0 6 -13 10 -30 10
-16 0 -30 -4 -30 -10z"/>
<path d="M4260 2000 c0 -5 14 -10 30 -10 17 0 30 5 30 10 0 6 -13 10 -30 10
-16 0 -30 -4 -30 -10z"/>
<path d="M845 1960 c3 -5 13 -10 21 -10 8 0 14 5 14 10 0 6 -9 10 -21 10 -11
0 -17 -4 -14 -10z"/>
<path d="M537 1853 c-32 -8 -12 -28 32 -31 37 -3 42 -1 39 15 -3 18 -36 26
-71 16z"/>
<path d="M4044 1745 c-10 -7 -28 -12 -39 -9 -13 3 -28 -3 -39 -15 -11 -12 -29
-21 -40 -21 -26 0 -85 -35 -92 -55 -4 -8 -22 -23 -41 -32 -19 -9 -37 -23 -40
-32 -12 -38 -26 -57 -53 -73 -17 -9 -30 -25 -30 -36 0 -10 -13 -28 -29 -39
-20 -15 -30 -34 -35 -63 -3 -23 -14 -52 -22 -66 -9 -13 -14 -30 -11 -38 3 -8
-2 -25 -12 -38 -10 -13 -21 -35 -25 -50 -3 -16 -9 -39 -12 -53 -5 -19 -2 -25
11 -25 12 0 15 -5 10 -19 -3 -11 -1 -22 5 -26 5 -3 10 -15 10 -27 0 -19 4 -20
48 -14 55 7 66 2 51 -27 -11 -19 -9 -20 22 -13 39 7 103 48 139 88 14 16 56
49 95 76 55 37 82 65 127 132 32 47 60 100 64 119 8 39 19 62 52 109 23 31 23
35 11 105 -7 39 -12 84 -11 100 1 17 -4 27 -13 27 -8 0 -15 5 -15 10 0 6 -8 5
-21 -2 -17 -11 -22 -10 -33 4 -11 15 -15 16 -32 3z m50 -147 c4 -21 1 -44 -8
-63 -8 -16 -18 -42 -21 -57 -3 -15 -26 -51 -51 -79 -25 -28 -50 -62 -55 -76
-6 -16 -15 -23 -27 -20 -9 2 -29 -3 -45 -10 -36 -18 -40 -7 -28 81 10 67 20
89 54 114 9 7 17 24 17 38 0 30 33 64 57 58 11 -3 32 7 53 25 19 16 38 27 41
25 4 -2 9 -18 13 -36z"/>
<path d="M534 1739 c-11 -19 -9 -128 3 -140 14 -14 21 8 25 85 3 58 -10 83
-28 55z"/>
<path d="M4489 1730 c-3 -19 -11 -26 -31 -28 -34 -4 -37 -19 -5 -24 17 -2 23
-11 25 -37 2 -19 9 -43 16 -53 12 -17 14 -14 19 25 7 47 -17 162 -24 117z"/>
<path d="M2746 1675 c4 -8 7 -15 9 -15 2 0 5 7 9 15 3 9 0 15 -9 15 -9 0 -12
-6 -9 -15z"/>
<path d="M2791 1674 c0 -11 3 -14 6 -6 3 7 2 16 -1 19 -3 4 -6 -2 -5 -13z"/>
<path d="M3340 1660 c-12 -8 -9 -10 13 -10 15 0 27 5 27 10 0 13 -20 13 -40 0z"/>
<path d="M680 1650 c0 -5 20 -10 45 -10 25 0 45 5 45 10 0 6 -20 10 -45 10
-25 0 -45 -4 -45 -10z"/>
<path d="M1542 1638 c6 -17 128 -24 128 -8 0 8 -13 10 -39 5 -24 -4 -42 -2
-46 4 -9 15 -48 14 -43 -1z"/>
<path d="M2540 1635 c-43 -12 -46 -15 -17 -19 19 -3 67 15 67 25 0 5 -1 9 -2
8 -2 -1 -23 -7 -48 -14z"/>
<path d="M1695 1599 c-4 -6 -5 -13 -2 -16 7 -7 27 6 27 18 0 12 -17 12 -25 -2z"/>
<path d="M560 1579 c0 -23 48 -79 67 -79 7 0 13 -7 13 -15 0 -9 9 -15 25 -15
14 0 24 -5 23 -11 -4 -16 55 -40 72 -29 22 14 3 40 -30 40 -20 0 -30 5 -30 15
0 8 -7 15 -15 15 -8 0 -25 11 -37 25 -12 14 -28 25 -35 25 -7 0 -13 11 -13 25
0 18 -5 25 -20 25 -14 0 -20 -7 -20 -21z"/>
<path d="M2240 1580 c0 -5 5 -10 10 -10 6 0 10 5 10 10 0 6 -4 10 -10 10 -5 0
-10 -4 -10 -10z"/>
<path d="M1870 1569 c0 -5 5 -7 10 -4 6 3 10 8 10 11 0 2 -4 4 -10 4 -5 0 -10
-5 -10 -11z"/>
<path d="M1977 1573 c-4 -3 -7 -11 -7 -17 0 -6 5 -5 12 2 6 6 9 14 7 17 -3 3
-9 2 -12 -2z"/>
<path d="M2120 1559 c0 -5 5 -7 10 -4 6 3 10 8 10 11 0 2 -4 4 -10 4 -5 0 -10
-5 -10 -11z"/>
<path d="M1618 1222 c-10 -2 -18 -7 -18 -12 0 -12 28 -20 45 -14 31 12 8 34
-27 26z"/>
<path d="M3194 1175 c-29 -31 -36 -34 -54 -25 -12 6 -31 10 -43 9 -12 -2 -39
3 -59 10 -21 7 -46 10 -57 6 -11 -3 -22 -1 -26 4 -3 6 -34 9 -75 6 -38 -2 -72
-1 -75 4 -3 5 -21 5 -42 1 -22 -5 -42 -5 -48 0 -7 6 -46 3 -100 -7 -71 -13
-104 -14 -169 -6 -63 8 -83 7 -91 -2 -10 -12 -66 -12 -86 1 -6 3 -16 0 -24 -6
-8 -7 -25 -10 -38 -6 -13 3 -27 2 -31 -2 -4 -4 -17 -8 -29 -9 -12 -1 -51 -5
-87 -8 -36 -4 -73 -13 -82 -22 -11 -10 -22 -12 -35 -5 -10 5 -29 6 -43 2 -19
-5 -33 0 -58 22 -46 39 -87 38 -120 -4 -11 -14 -11 -21 4 -43 14 -21 15 -31 7
-45 -10 -14 -4 -24 32 -60 28 -27 49 -41 59 -37 9 4 31 0 50 -8 45 -19 46 -19
46 4 0 10 -7 21 -15 25 -12 4 -10 10 9 31 25 27 45 32 62 15 7 -7 19 -7 35 -1
16 6 31 5 43 -1 11 -6 22 -6 31 2 9 7 26 9 46 5 20 -5 34 -3 39 4 5 9 19 9 54
-1 39 -10 49 -10 55 1 6 10 22 11 58 6 39 -5 54 -3 66 9 13 13 36 15 129 12
62 -2 127 -6 143 -8 17 -2 49 2 73 8 28 8 44 9 48 2 4 -6 23 -8 45 -4 23 4 40
2 44 -5 4 -6 18 -8 30 -5 13 3 26 2 30 -3 3 -6 15 -7 28 -4 12 3 33 5 47 4 14
-1 46 -2 72 -2 48 1 69 -12 49 -32 -12 -12 -15 -47 -3 -47 4 0 20 7 36 15 16
9 36 13 43 11 35 -14 101 57 71 75 -9 6 -8 14 2 36 8 15 16 31 18 36 2 4 -4 7
-13 7 -10 0 -15 6 -13 18 3 15 -30 52 -47 52 -4 0 -23 -16 -41 -35z"/>
<path d="M3270 2780 c0 -5 9 -10 20 -10 16 0 20 -7 20 -30 0 -31 16 -41 26
-16 8 20 -26 65 -48 66 -10 0 -18 -4 -18 -10z"/>
<path d="M3355 2630 c-3 -5 -1 -10 4 -10 6 0 11 5 11 10 0 6 -2 10 -4 10 -3 0
-8 -4 -11 -10z"/>
<path d="M3350 2545 c0 -8 7 -15 15 -15 8 0 15 7 15 15 0 8 -7 15 -15 15 -8 0
-15 -7 -15 -15z"/>
<path d="M1900 2516 c0 -2 7 -6 15 -10 8 -3 15 -1 15 4 0 6 -7 10 -15 10 -8 0
-15 -2 -15 -4z"/>
<path d="M1933 2479 c-8 -8 -9 -19 -2 -38 7 -17 7 -27 0 -29 -17 -6 -13 -19 8
-25 14 -3 18 -1 14 9 -3 8 0 14 7 14 14 0 10 72 -5 77 -6 2 -16 -2 -22 -8z"/>
<path d="M2444 2384 c3 -9 6 -18 6 -20 0 -2 5 -4 10 -4 6 0 10 9 10 20 0 12
-7 20 -16 20 -11 0 -14 -5 -10 -16z"/>
<path d="M1762 2370 c0 -14 2 -19 5 -12 2 6 2 18 0 25 -3 6 -5 1 -5 -13z"/>
<path d="M1792 2370 c0 -14 2 -19 5 -12 2 6 2 18 0 25 -3 6 -5 1 -5 -13z"/>
<path d="M1972 2363 c-8 -13 -3 -23 18 -45 16 -15 36 -28 44 -28 25 0 18 30
-9 40 -14 5 -25 16 -25 24 0 23 -18 28 -28 9z"/>
<path d="M1610 2360 c-12 -8 -12 -10 3 -16 21 -8 35 2 21 16 -5 5 -15 6 -24 0z"/>
<path d="M1760 2314 c0 -7 8 -10 20 -7 11 3 20 8 20 12 0 4 -9 7 -20 7 -11 0
-20 -6 -20 -12z"/>
<path d="M2490 2304 c0 -8 5 -12 10 -9 6 4 8 11 5 16 -9 14 -15 11 -15 -7z"/>
<path d="M2052 2269 c2 -6 8 -10 13 -10 5 0 11 4 13 10 2 6 -4 11 -13 11 -9 0
-15 -5 -13 -11z"/>
<path d="M2520 2270 c0 -5 5 -10 10 -10 6 0 10 5 10 10 0 6 -4 10 -10 10 -5 0
-10 -4 -10 -10z"/>
<path d="M2087 2243 c-11 -11 -8 -20 9 -27 21 -8 34 1 27 19 -5 16 -25 20 -36
8z"/>
</g>
</svg>
